# xmcd
#
# Track frame offsets:
#	150
#	14546
#	26044
#	41335
#	53290
#	62674
#	78705
#	97375
#	114344
#	136149
#	146514
#
# Disc length: 2081 seconds
#
# Revision: 18
# Processed by: cddbd v1.5.2PL0 Copyright (c) Steve Scherf et al.
# Submitted via: audiograbber 1.83.01
#
DISCID=8f081f0b
DTITLE=R.E.M. - Accelerate (2008) (Zo)
DYEAR=2008
DGENRE=Rock
TTITLE0=Living Well Is The Best Revenge
TTITLE1=Man-Sized Wreath
TTITLE2=Supernatural Superserious
TTITLE3=Hollow Man
TTITLE4=Houston
TTITLE5=Accelerate
TTITLE6=Until The Day Is Done
TTITLE7=Mr. Richards
TTITLE8=Sing For The Submarine
TTITLE9=Horse To Water
TTITLE10=I'm Gonna DJ
EXTD=
EXTT0=
EXTT1=
EXTT2=
EXTT3=
EXTT4=
EXTT5=
EXTT6=
EXTT7=
EXTT8=
EXTT9=
EXTT10=
PLAYORDER=
